<?xml version="1.0" encoding="utf-8"?>
<!-- Generator: Adobe Illustrator 27.0.0, SVG Export Plug-In . SVG Version: 6.00 Build 0)  -->
<svg version="1.1" id="Layer_1" xmlns="http://www.w3.org/2000/svg" xmlns:xlink="http://www.w3.org/1999/xlink" x="0px" y="0px"
	 viewBox="0 0 594.4 527.5" style="enable-background:new 0 0 594.4 527.5;" xml:space="preserve">
<style type="text/css">
	.st0{fill:#FED09B;}
</style>
<path class="st0" d="M472.7,68.1c-29.6-26.5-65.1-46.4-104.3-57.4h183.3C522.2,27.7,496,47.3,472.7,68.1 M549.8,264.2
	c0,139.3-113.3,252.6-252.6,252.6S44.7,403.5,44.7,264.2c0-72.4,30.6-137.7,79.5-183.8c4.6,4,9.1,8,13.5,12
	c-33,38.2-51.1,87-51.1,137.6c0,116.2,94.5,210.7,210.7,210.7c116.2,0,210.7-94.5,210.7-210.7c0-49.3-17.2-96.9-48.7-134.7
	c4.3-4.3,8.7-8.5,13.3-12.8C520.2,128.5,549.8,193,549.8,264.2 M43.3,10.7h183c-38.3,10.8-73.1,30-102.3,55.5
	C100.2,46.6,73.4,27.7,43.3,10.7 M353.9,217c-27.8,49-44.1,92.4-51.9,115.8c-6.7-22.6-21-63.6-48.4-111.7
	c-24.7-43.4-63.4-97.9-121.4-147.9c44.3-38.3,102-61.6,165.1-61.6c64.2,0,122.8,24.1,167.4,63.6C414,122.3,377.9,174.6,353.9,217
	 M411.2,149.9c30.3,3.8,53,29.4,53,60.1c0,33.4-27.2,60.6-60.6,60.6c-21.1,0-40.1-10.6-51.3-28.4c3.5-6.6,7.1-13.4,11.1-20.3
	C375.8,199.9,391.7,175.2,411.2,149.9 M191.5,149.5c22.1,27.1,39.4,53.4,52.6,76.5c1.1,2,2.3,4,3.4,6c-9,23.2-31.6,38.7-56.5,38.7
	c-33.4,0-60.6-27.2-60.6-60.6s27.2-60.6,60.6-60.6C191.2,149.5,191.3,149.5,191.5,149.5 M183,139.2c-35.6,4-63.3,34.2-63.3,70.8
	c0,39.3,32,71.3,71.3,71.3c26.4,0,50.5-14.8,62.8-37.6c32.3,61.8,42.5,109.2,42.6,109.7l4.7,22.4l5.7-22.2
	c0.1-0.5,11.5-43.6,40-100.6c13.4,17.6,34.5,28.3,56.8,28.3c39.3,0,71.3-32,71.3-71.3c0-34-23.6-62.7-56.2-69.7
	c10.1-12.5,21.1-25.1,33-37.4c29.4,35.7,45.5,80.6,45.5,127c0,110.3-89.7,200-200,200c-110.3,0-200-89.7-200-200
	c0-47.8,17.1-94,48.2-130.2C159.2,112.8,171.7,126.1,183,139.2 M594.4,0H0l19.6,10.1C56.3,29,88.3,50.7,116,73.5
	c-50.5,48-82,115.8-82,190.7c0,145.2,118.1,263.3,263.3,263.3c145.2,0,263.3-118.1,263.3-263.3c0-74-30.7-141-80-188.8
	c27.3-24.2,58.6-46.7,94.4-65.3L594.4,0z"/>
</svg>
